<?xml version="1.0" encoding="utf-8"?>
<!-- Generator: Adobe Illustrator 25.1.0, SVG Export Plug-In . SVG Version: 6.00 Build 0)  -->
<svg version="1.1" xmlns="http://www.w3.org/2000/svg" xmlns:xlink="http://www.w3.org/1999/xlink" x="0px" y="0px"
	 viewBox="0 0 141.7 141.7" style="enable-background:new 0 0 141.7 141.7;" xml:space="preserve">
<style type="text/css">
	.st0{fill:#E6A329;}
	.st1{fill:#F1BF22;}
	.st2{fill:#FFFFFF;}
	.st3{fill:#EBEBEB;}
	.st4{display:none;}
</style>
<g id="Layer_1">
	<g id="code_x5F_html5">
	</g>
	<g>
		<polygon class="st0" points="111.1,36.4 70.9,36.4 70.9,36.4 30.6,36.4 38.1,118.3 70.9,127.6 70.9,127.6 70.9,127.6 70.9,127.6 
			70.9,127.6 103.6,118.3 		"/>
		<polygon class="st1" points="70.9,43.1 70.9,120.6 70.9,120.6 97.4,113.1 103.8,43.1 		"/>
		<polygon class="st2" points="92,53.1 51.2,53.1 48.4,83.8 48.4,83.6 83,83.6 81.9,96.6 70.9,99.7 59.7,96.5 59,88.7 48.8,88.7 
			50.3,104.3 70.9,110.2 91.5,104.3 94.3,73.6 57.6,73.6 58,63.3 83.5,63.3 83.9,69.2 94.2,69.2 		"/>
		<g>
			<path class="st3" d="M70.9,53.1H51.2l-2.8,30.7l0.1-0.2h22.5v-10H59l0.5-10.3h11.4V53.1z M59,88.7H48.8l1.5,15.7l20.6,5.8V99.7
				l-11.2-3.2L59,88.7z"/>
		</g>
		<g>
			<polygon points="63,24.3 55.9,24.3 55.9,29.5 63,29.5 66.9,29.5 68.2,29.5 68.2,14.2 63,14.2 			"/>
			<path d="M85.9,14.3H73.4c0,0,0,2.7,0,5.4c1.7,1.7,2.5,2.5,5,4.9c-1.4,0-5,0-5,0v4.9h12.5v-4.9l-5-4.9h5V14.3z"/>
		</g>
	</g>
</g>
<g id="Layer_2" class="st4">
</g>
</svg>
